<svg xmlns="http://www.w3.org/2000/svg" viewBox="0 0 24 24" fill="currentColor">
  <path d="M12.766 3.983c.243.1.464.248.65.434l6.168 6.167a2.012 2.012 0 0 1 .587 1.417 2.013 2.013 0 0 1-.587 1.416l-6.168 6.167a1.993 1.993 0 0 1-1.416.587 1.995 1.995 0 0 1-1.416-.587l-6.168-6.167a2.012 2.012 0 0 1-.587-1.416 2.012 2.012 0 0 1 .587-1.417l6.168-6.167A1.993 1.993 0 0 1 12 3.83c.263 0 .523.052.766.153zm-1.473 9.724a.997.997 0 0 0 1.414 0A.997.997 0 0 0 13 13V8a.997.997 0 0 0-1-1 .997.997 0 0 0-1 1v5c0 .265.105.52.293.707zm0 3a.997.997 0 0 0 1.414 0 .997.997 0 0 0 0-1.414.997.997 0 0 0-1.414 0 .997.997 0 0 0 0 1.414z"/>
</svg>
